<?xml version="1.0" encoding="utf-8"?>
<!-- Generator: Adobe Illustrator 24.1.2, SVG Export Plug-In . SVG Version: 6.00 Build 0)  -->
<svg version="1.0" id="Camada_1" xmlns="http://www.w3.org/2000/svg" xmlns:xlink="http://www.w3.org/1999/xlink" x="0px" y="0px"
	 viewBox="0 0 1516 326.7" style="enable-background:new 0 0 1516 326.7;" xml:space="preserve">
<g>
	<path d="M147.7,142c0,8.9,0.1,16.4,0,23.9c-0.2,26.2-0.2,52.3-0.8,78.5c-0.2,8.2-2,16.5-10.8,20.4c-9.8,4.4-19.8,4.6-29.4-0.5
		c-8.1-4.3-10.4-12.3-10.6-20.7c-0.3-11.8-0.1-23.7-0.1-35.5c0-44.7,0-89.3,0.1-134c0-13.6,6.6-22.9,17.4-25.5
		c11.3-2.7,21.4,0,28.8,9.1c16.9,20.6,33.4,41.5,50.1,62.3c13.2,16.5,26.5,33,39.7,49.5c0.9,1.1,1.9,2.2,3.8,4.4c0-2.9,0-4.7,0-6.4
		c0-30,0-60,0.1-90c0-4.3,0.2-8.7,1.3-12.9c3-11.7,14-18.3,27-16.8c15.5,1.8,22.8,9.3,22.8,24.9c0.2,57.3,0.1,114.7,0,172
		c0,8.9-3.2,17.1-11.9,20.9c-10.1,4.4-20.8,3.9-29-3.7c-8.6-8-16-17.3-23.4-26.5c-24-29.8-47.8-59.8-71.7-89.8
		C150.3,144.7,149.5,143.9,147.7,142z"/>
	<path d="M844.7,180.6c3.7,1.9,6.7,2.9,8.8,4.7c4.7,4.2,10,8.2,13.2,13.4c7.7,12.6,15,25.6,21.4,38.9c6.7,14,0.1,26.2-14.9,29.5
		c-16.4,3.7-30.3-2.8-38.9-18.3c-8.7-15.5-17.7-30.9-25.6-46.9c-5.6-11.2-13.5-17.3-26.1-17c-3.5,0.1-7,0.1-10.5-0.3
		c-4.9-0.7-5.9,1.6-5.9,6c0.1,15.8,0,31.7,0,47.5c0,1.5,0,3-0.1,4.5c-0.7,10.1-3.9,18.9-14.1,22.7c-11.5,4.2-23,4.5-32.9-4.1
		c-6.5-5.7-8.1-13.5-8.1-21.8c0-30.8,0-61.7,0-92.5c0-23.2-0.1-46.3,0.2-69.5c0.3-17.9,9.7-26.9,27.6-26.9c26.7,0,53.3,0,80,0.1
		c16.3,0.1,31.7,3.6,45.4,13c20,13.7,26.6,33.7,25.9,56.8c-0.9,27.9-14.2,47.5-40.4,58C848.3,178.9,847.1,179.5,844.7,180.6z
		 M766,119.8C766,119.8,766.1,119.8,766,119.8c0,7.2,0.2,14.3,0,21.5c-0.1,3.5,1.1,4.7,4.6,4.5c14-0.5,28-0.8,41.9-1.1
		c14.9-0.4,24.5-9.8,24.9-24.3c0.4-14.4-9.2-25.8-23.4-26.6c-14.3-0.8-28.6-0.7-42.9-1.1c-3.5-0.1-5.1,1.4-5,5.1
		C766.2,105.1,766,112.4,766,119.8z"/>
	<path d="M1009.7,47.3c22.4,0.1,41.8,3.3,59.9,12.4c8.4,4.2,14.3,10.3,15.3,20c1.6,16.1-12.2,26.7-28,22.2
		c-12.4-3.5-25.1-6.6-37.8-8.7c-10.6-1.8-21.2-0.3-31.3,4.1c-7.5,3.3-11.7,9.1-11.6,17.1c0.1,8.1,5.8,12.7,12.9,14.8
		c12.3,3.5,24.8,6.3,37.2,9.4c9.7,2.4,19.5,4.4,29,7.5c51,16.6,48,74.6,20.3,99.5c-13.1,11.7-28.4,17.5-45.3,20.4
		c-31.8,5.4-62.6,1.7-92.6-10c-2.9-1.1-5.8-2.5-8.5-4.1c-9.2-5.5-12.7-15.6-9.6-27c2.5-9.2,11.3-16.5,20.4-16.1
		c4.2,0.2,8.4,1.8,12.4,3.4c19.5,7.7,39.6,11.6,60.5,10.2c5.7-0.4,11.5-1.8,16.9-3.8c6.8-2.4,11.3-9.3,10.9-15.3
		c-0.5-7.5-5.1-12-11.9-13.8c-17.2-4.6-34.6-8.4-51.7-13.2c-9.9-2.7-20.1-5.4-28.9-10.5c-28.7-16.6-31.3-50.3-22.1-73.2
		c8.2-20.5,24.7-32,44.7-39.2C984.2,49,998,47,1009.7,47.3z"/>
	<path d="M523.7,158.4c0-26.3,0-52.7,0-79c0-18.5,9.7-28.6,28.1-28.7c34.2-0.2,68.3-0.1,102.5,0c3.3,0,6.7,0.4,9.9,1.3
		c2.6,0.8,5.6,2,7.4,3.9c6.8,7.4,7.1,16.3,4.2,25.3c-2.6,8.3-9.2,12.1-17.6,12.3c-14,0.3-28,0.3-42,0.4c-11.5,0-23,0.1-34.5-0.1
		c-3.9-0.1-5.3,1.4-5.3,5.2c0.1,10.3,0.1,20.7,0,31c0,3.7,1.5,4.9,5.1,4.8c20.3-0.1,40.7-0.2,61,0c5.1,0,10.3,0.8,15.3,1.7
		c5.9,1.1,9.9,5,11.2,10.7c1,4.1,1.7,8.6,1.2,12.7c-1.4,11.9-8.1,17.6-20.2,17.6c-22.3,0.1-44.7,0-67,0c-6.7,0-6.7,0-6.7,6.9
		c0,10.3,0,20.7,0,31c0,6.1,0.5,6.6,6.5,6.6c22.2,0,44.3-0.2,66.5,0.1c5.7,0.1,11.7,0.9,17.1,2.8c3.3,1.2,7,4.5,8.3,7.8
		c5.6,14.1,3.2,31.9-19.4,32.6c-10.7,0.4-21.3,0.1-32,0.1c-22.3,0-44.7,0.1-67-0.1c-5.6-0.1-11.4-0.7-16.7-2.3
		c-10.6-3.3-16-11.6-16-23.2c-0.1-27.2,0-54.3,0-81.5C523.8,158.4,523.8,158.4,523.7,158.4z"/>
	<path d="M1123.3,157.9c0-25.5-0.1-51,0.1-76.5c0-4.3,0.2-8.7,1.3-12.9c2.7-10.4,12.2-17.8,24.4-17.9c36.2-0.2,72.3-0.2,108.5,0.1
		c11.8,0.1,18.2,6.2,19.4,16.8c1.4,12.5-3.4,22.1-12.8,24.7c-3.5,0.9-7.2,1.3-10.9,1.3c-23,0.1-46,0.1-69,0.1
		c-8.1,0-8.1-0.1-8.1,7.8c0,8.8,0,17.7,0,26.5c0,6.7,0.1,6.8,6.6,6.8c19.8,0,39.7-0.1,59.5,0c3.3,0,6.7,0,10,0.5
		c13.3,2,19,9.3,18.2,22.7c-0.7,12.9-8,19.7-20.9,19.7c-22.3,0-44.7,0-67,0c-6.4,0-6.4,0-6.4,6.4c0,10.7,0.2,21.3-0.1,32
		c-0.1,5,1.8,6.3,6.4,6.2c24.3-0.1,48.7-0.2,73,0.2c17.8,0.3,27,15.6,19.9,32.2c-2,4.6-5.5,7.7-10.2,8.9c-4.6,1.2-9.5,2-14.2,2
		c-32,0.1-64,0.1-96,0c-10.7,0-20.6-2-27.3-11.5c-3.8-5.3-4.3-11.4-4.3-17.6C1123.3,210.3,1123.3,184.1,1123.3,157.9z"/>
	<path d="M1416.4,47.2c21,0.2,39,3.7,56,11.6c17.8,8.2,22.2,29,8.7,42.5c-5.3,5.3-11.5,6.8-18.8,4.6c-10.9-3.3-21.8-7.7-33-9.3
		c-18.2-2.7-35.5,0.5-49.6,14c-7.4,7.1-11.1,15.9-13.3,25.8c-4.1,18.2-3.7,36.1,3.2,53.5c7.7,19.6,23.4,28,43.4,30.1
		c15,1.6,29.3-1.2,42.8-7.5c11.9-5.6,25.8-2.5,31.7,11.1c5.6,12.8,0.5,25.6-12.7,32.5c-12.9,6.7-26.7,10-40.9,11.8
		c-24.6,3-48.6,0.2-71.1-10.5c-30.7-14.6-49.2-39.1-54.8-72.6c-3.7-22.2-4.1-44.5,3.1-66.3c10.7-32.4,32.2-54.1,64.7-64.6
		C1389.8,49.2,1404.2,47.2,1416.4,47.2z"/>
	<path d="M433.7,95.7c-0.1,2.7-0.4,5-0.4,7.3c-0.1,46.2-0.1,92.3-0.3,138.5c-0.1,12.9-6.4,21.8-16.5,24.7
		c-14.3,4.1-27.3,0.6-34.3-9.3c-5.2-7.5-4.7-16.2-4.7-24.6c-0.2-43-0.1-86-0.1-129c0-9.2-0.1-7.5-7.5-7.5c-14-0.1-28,0-42-0.1
		c-8.2-0.1-15.3-2.7-18.8-10.7c-3.9-9-4-18.2,1.6-26.7c3.3-5,8.6-7.3,14.5-7.7c2.3-0.2,4.7-0.1,7-0.1c48.3,0,96.7,0,145,0.1
		c4.3,0,8.7,0.4,12.8,1.4c8.4,1.8,13.7,8.2,13.6,16.8c0,5.3-0.7,10.7-2.1,15.8c-1.7,6.7-9.1,11.1-17.7,11.2
		c-14.8,0.1-29.7,0.1-44.5,0.1C437.8,95.7,436,95.7,433.7,95.7z"/>
	<path d="M56.1,157.9c0,27.7,0,55.3,0,83c0,11-3.4,20.5-14.3,24.5c-11.8,4.3-23.7,3.9-33.7-5.1c-5-4.5-6.6-10.7-6.9-17.1
		c-0.3-7.5-0.4-15-0.4-22.5c0-45.7,0-91.3,0-137c0-4.5,0.2-9,0.7-13.5c2.2-18.5,16.2-23.9,31.2-22.1C49.3,50.1,56,58.5,56,75.4
		C56,102.9,56,130.4,56.1,157.9C56,157.9,56.1,157.9,56.1,157.9z"/>
</g>
</svg>
